<?xml version="1.0" encoding="utf-8"?>
<svg width="24px" height="24px" viewBox="0 0 24 24" version="1.1" xmlns:xlink="http://www.w3.org/1999/xlink" xmlns="http://www.w3.org/2000/svg">
  <defs>
    <rect width="24" height="24" id="artboard_1" />
    <clipPath id="clip_1">
      <use xlink:href="#artboard_1" clip-rule="evenodd" />
    </clipPath>
  </defs>
  <g id="vuesaxbrokenhome-2" clip-path="url(#clip_1)">
    <g id="vuesaxbrokenhome-2">
      <g id="home-2">
        <path d="M22 10.4999C22 9.28992 21.19 7.73992 20.2 7.04992L14.02 2.71992C12.62 1.73992 10.37 1.78992 9.02 2.83992L3.63 7.03992C2.73 7.73992 2 9.22992 2 10.3599L2 17.7699C2 20.0899 3.89 21.9899 6.21 21.9899L17.79 21.9899C20.11 21.9899 22 20.0899 22 17.7799L22 14.6799" id="Vector" fill="none" stroke="#292D32" stroke-width="1.5" stroke-linecap="round" stroke-linejoin="round" />
        <path d="M12 17.99L12 14.99" id="Vector" fill="none" stroke="#292D32" stroke-width="1.5" stroke-linecap="round" stroke-linejoin="round" />
        <path d="M24 0L24 24L0 24L0 0L24 0Z" id="Vector" fill="none" fill-rule="evenodd" stroke="none" />
      </g>
    </g>
  </g>
</svg>