<?xml version="1.0" encoding="UTF-8" standalone="no"?><!DOCTYPE svg PUBLIC "-//W3C//DTD SVG 1.1//EN" "http://www.w3.org/Graphics/SVG/1.1/DTD/svg11.dtd"><svg width="100%" height="100%" viewBox="0 0 100 100" version="1.1" xmlns="http://www.w3.org/2000/svg" xmlns:xlink="http://www.w3.org/1999/xlink" xml:space="preserve" xmlns:serif="http://www.serif.com/" style="fill-rule:evenodd;clip-rule:evenodd;stroke-linejoin:round;stroke-miterlimit:2;"><path d="M86.083,29.083c-3.635,-6.3 -8.869,-11.532 -15.17,-15.166c-6.388,-3.721 -13.359,-5.584 -20.913,-5.584c-7.554,0 -14.525,1.863 -20.917,5.584c-6.387,3.72 -11.445,8.779 -15.166,15.166c-3.721,6.388 -5.584,13.363 -5.584,20.917c0,7.554 1.859,14.529 5.584,20.917c3.634,6.301 8.868,11.534 15.171,15.166c6.387,3.721 13.358,5.584 20.912,5.584c7.554,0 14.525,-1.863 20.917,-5.584c6.301,-3.634 11.535,-8.866 15.171,-15.166c3.72,-6.388 5.579,-13.363 5.579,-20.917c0,-7.554 -1.859,-14.529 -5.584,-20.917Zm-36.083,-13.833c8.333,0 15.717,2.667 22.167,7.996c-3.834,4.892 -9.525,8.917 -17.084,12.083c-4.175,-7.554 -8.7,-13.862 -13.587,-18.916c2.77,-0.766 5.63,-1.157 8.504,-1.163Zm-27.042,13.083c3.047,-3.869 6.902,-7.026 11.296,-9.25c5.05,5.005 9.688,11.25 13.917,18.75c-8.333,2.5 -17.142,3.75 -26.421,3.75c-2.387,0 -4.192,-0.054 -5.417,-0.166c1.277,-4.774 3.534,-9.229 6.625,-13.084Zm-7.708,21.667c0,-0.225 0.013,-0.5 0.042,-0.833c0.029,-0.334 0.041,-0.609 0.041,-0.834c1.059,0.059 2.671,0.084 4.838,0.084c11.108,0 21.442,-1.529 30.996,-4.584c0.779,1.555 1.587,3.305 2.416,5.25c-5.5,1.221 -11.141,4.192 -16.92,8.917c-5.78,4.725 -9.996,9.696 -12.663,14.917c-5.833,-6.613 -8.75,-14.25 -8.75,-22.917Zm34.75,34.75c-7.892,0 -14.975,-2.446 -21.254,-7.329c2.504,-4.946 6.35,-9.675 11.546,-14.171c5.191,-4.5 10.346,-7.304 15.458,-8.417c3.225,8.913 5.406,18.169 6.5,27.584c-3.905,1.525 -8.058,2.317 -12.25,2.333Zm29.5,-16.5c-2.727,4.394 -6.4,8.125 -10.75,10.921c-1,-8.667 -2.917,-17.113 -5.746,-25.338c3.884,-0.275 7.354,-0.416 10.417,-0.416c3.329,0 7.025,0.141 11.079,0.416c-0.544,5.124 -2.254,10.056 -5,14.417Zm-5.167,-20.833c-4.833,0 -9.304,0.196 -13.416,0.583c-0.871,-2.28 -1.816,-4.531 -2.834,-6.75c8.609,-3.775 14.717,-8.358 18.33,-13.75c5,5.892 7.725,12.613 8.166,20.167c-3.383,-0.167 -6.8,-0.25 -10.246,-0.25Z" style="fill:#fff;fill-rule:nonzero;"/></svg>