<?xml version="1.0" encoding="UTF-8" standalone="no"?><!DOCTYPE svg PUBLIC "-//W3C//DTD SVG 1.1//EN" "http://www.w3.org/Graphics/SVG/1.1/DTD/svg11.dtd"><svg width="100%" height="100%" viewBox="0 0 100 100" version="1.1" xmlns="http://www.w3.org/2000/svg" xmlns:xlink="http://www.w3.org/1999/xlink" xml:space="preserve" xmlns:serif="http://www.serif.com/" style="fill-rule:evenodd;clip-rule:evenodd;stroke-linejoin:round;stroke-miterlimit:2;"><path d="M50.108,8.333c-22.954,0 -41.558,18.605 -41.558,41.559c0,18.358 11.904,33.937 28.421,39.437c2.079,0.375 2.829,-0.904 2.829,-2.004c0,-0.987 -0.033,-3.604 -0.046,-7.067c-11.562,2.509 -14.004,-5.575 -14.004,-5.575c-1.883,-4.8 -4.613,-6.079 -4.613,-6.079c-3.77,-2.579 0.288,-2.521 0.288,-2.521c4.175,0.292 6.362,4.284 6.362,4.284c3.709,6.35 9.734,4.516 12.092,3.454c0.379,-2.688 1.463,-4.521 2.646,-5.558c-9.225,-1.046 -18.925,-4.613 -18.925,-20.542c0,-4.529 1.621,-8.246 4.267,-11.146c-0.421,-1.054 -1.859,-5.283 0.412,-11c0,0 3.488,-1.121 11.425,4.254c3.39,-0.922 6.887,-1.393 10.4,-1.4c3.513,0.006 7.01,0.477 10.4,1.4c7.942,-5.379 11.425,-4.254 11.425,-4.254c2.271,5.717 0.846,9.946 0.413,11c2.666,2.9 4.266,6.613 4.266,11.146c0,15.971 -9.708,19.479 -18.966,20.508c1.479,1.284 2.812,3.817 2.812,7.692c0,5.558 -0.05,10.042 -0.05,11.404c0,1.113 0.742,2.404 2.863,1.996c16.508,-5.508 28.4,-21.075 28.4,-39.429c0,-22.954 -18.605,-41.559 -41.559,-41.559Z" style="fill:#fff;"/></svg>