<?xml version="1.0" encoding="UTF-8" standalone="no"?><!DOCTYPE svg PUBLIC "-//W3C//DTD SVG 1.1//EN" "http://www.w3.org/Graphics/SVG/1.1/DTD/svg11.dtd"><svg width="100%" height="100%" viewBox="0 0 100 100" version="1.1" xmlns="http://www.w3.org/2000/svg" xmlns:xlink="http://www.w3.org/1999/xlink" xml:space="preserve" xmlns:serif="http://www.serif.com/" style="fill-rule:evenodd;clip-rule:evenodd;stroke-linejoin:round;stroke-miterlimit:2;"><path d="M21.154,39.404c0,-3.242 0.567,-6.304 1.684,-9.162c1.066,-2.777 2.652,-5.325 4.67,-7.509c2.015,-2.155 4.321,-4.019 6.85,-5.537c2.596,-1.57 5.406,-2.755 8.342,-3.517c2.972,-0.78 6.032,-1.174 9.104,-1.171c4.746,0 9.163,1.005 13.259,3.005c4.042,1.963 7.483,4.977 9.962,8.724c2.558,3.813 3.829,8.126 3.829,12.934c0,2.883 -0.283,5.704 -0.862,8.462c-0.569,2.757 -1.473,5.434 -2.692,7.971c-1.162,2.456 -2.681,4.727 -4.508,6.738c-1.837,1.979 -4.061,3.559 -6.534,4.641c-2.685,1.177 -5.589,1.769 -8.521,1.738c-2.037,0 -4.07,-0.479 -6.079,-1.442c-2.008,-0.958 -3.45,-2.275 -4.316,-3.962c-0.305,1.171 -0.721,2.862 -1.275,5.075c-0.534,2.208 -0.892,3.633 -1.05,4.279c-0.167,0.642 -0.475,1.712 -0.925,3.196c-0.306,1.097 -0.697,2.168 -1.171,3.204l-1.434,2.808c-0.619,1.205 -1.312,2.371 -2.075,3.492c-0.754,1.091 -1.687,2.396 -2.8,3.896l-0.62,0.221l-0.413,-0.451c-0.446,-4.72 -0.675,-7.545 -0.675,-8.479c0,-2.762 0.329,-5.862 0.979,-9.304c0.638,-3.437 1.646,-7.758 3,-12.954c1.354,-5.192 2.129,-8.246 2.338,-9.15c-0.954,-1.946 -1.438,-4.488 -1.438,-7.613c0,-2.495 0.779,-4.833 2.342,-7.033c1.567,-2.192 3.546,-3.287 5.946,-3.287c1.837,0 3.262,0.608 4.283,1.829c1.025,1.216 1.525,2.75 1.525,4.621c0,1.983 -0.658,4.854 -1.983,8.608c-1.325,3.758 -1.984,6.562 -1.984,8.425c0,1.887 0.675,3.467 2.025,4.704c1.332,1.238 3.095,1.909 4.913,1.871c1.65,0 3.179,-0.375 4.6,-1.129c1.399,-0.732 2.609,-1.778 3.538,-3.054c2.021,-2.774 3.463,-5.927 4.237,-9.271c0.4,-1.759 0.708,-3.429 0.9,-5c0.204,-1.579 0.292,-3.071 0.292,-4.488c0,-5.196 -1.65,-9.246 -4.93,-12.146c-3.295,-2.9 -7.587,-4.341 -12.866,-4.341c-6.004,0 -11.025,1.941 -15.046,5.837c-4.025,3.884 -6.05,8.821 -6.05,14.809c0,1.32 0.2,2.595 0.579,3.829c0.371,1.229 0.775,2.208 1.213,2.933c0.433,0.713 0.841,1.408 1.212,2.05c0.375,0.642 0.571,1.1 0.571,1.375c0,0.842 -0.221,1.938 -0.667,3.292c-0.462,1.354 -1.008,2.029 -1.666,2.029c-0.063,0 -0.321,-0.046 -0.771,-0.142c-1.559,-0.465 -2.966,-1.335 -4.079,-2.521c-1.182,-1.228 -2.114,-2.675 -2.746,-4.258c-0.63,-1.578 -1.121,-3.207 -1.467,-4.871c-0.373,-1.574 -0.558,-3.186 -0.55,-4.804Z" style="fill:#fff;fill-rule:nonzero;"/></svg>